<mxfile host="app.diagrams.net" modified="2020-09-09T08:58:14.216Z" agent="5.0 (Windows NT 10.0; Win64; x64) AppleWebKit/537.36 (KHTML, like Gecko) Chrome/85.0.4183.83 Safari/537.36" etag="o-vzW-DYtlRiB5psrrWa" version="13.6.9" type="github">
  <diagram id="prtHgNgQTEPvFCAcTncT" name="Page-1">
    <mxGraphModel dx="731" dy="459" grid="1" gridSize="10" guides="1" tooltips="1" connect="1" arrows="1" fold="1" page="1" pageScale="1" pageWidth="827" pageHeight="1169" math="0" shadow="0">
      <root>
        <mxCell id="0" />
        <mxCell id="1" parent="0" />
        <mxCell id="m0RZPSVap7t2fpv9oxeb-20" value="" style="rounded=1;whiteSpace=wrap;html=1;" parent="1" vertex="1">
          <mxGeometry x="250" y="330" width="480" height="300" as="geometry" />
        </mxCell>
        <mxCell id="m0RZPSVap7t2fpv9oxeb-1" value="" style="rounded=1;whiteSpace=wrap;html=1;fillColor=#1ba1e2;strokeColor=#006EAF;fontColor=#ffffff;" parent="1" vertex="1">
          <mxGeometry x="300" y="360" width="160" height="240" as="geometry" />
        </mxCell>
        <mxCell id="m0RZPSVap7t2fpv9oxeb-8" value="FX" style="text;html=1;strokeColor=none;fillColor=none;align=center;verticalAlign=middle;whiteSpace=wrap;rounded=0;" parent="1" vertex="1">
          <mxGeometry x="360" y="340" width="40" height="20" as="geometry" />
        </mxCell>
        <mxCell id="m0RZPSVap7t2fpv9oxeb-14" value="" style="rounded=1;whiteSpace=wrap;html=1;fillColor=#60a917;strokeColor=#2D7600;fontColor=#ffffff;" parent="1" vertex="1">
          <mxGeometry x="520" y="360" width="160" height="240" as="geometry" />
        </mxCell>
        <mxCell id="m0RZPSVap7t2fpv9oxeb-15" value="Soft Piano &lt;br&gt;Sus Melody and Chord" style="text;html=1;strokeColor=none;fillColor=none;align=center;verticalAlign=middle;whiteSpace=wrap;rounded=0;" parent="1" vertex="1">
          <mxGeometry x="520" y="470" width="160" height="20" as="geometry" />
        </mxCell>
        <mxCell id="m0RZPSVap7t2fpv9oxeb-18" value="Melody" style="text;html=1;strokeColor=none;fillColor=none;align=center;verticalAlign=middle;whiteSpace=wrap;rounded=0;" parent="1" vertex="1">
          <mxGeometry x="580" y="340" width="40" height="20" as="geometry" />
        </mxCell>
        <mxCell id="m0RZPSVap7t2fpv9oxeb-21" value="intro" style="text;html=1;strokeColor=none;fillColor=none;align=center;verticalAlign=middle;whiteSpace=wrap;rounded=0;" parent="1" vertex="1">
          <mxGeometry x="455" y="310" width="70" height="20" as="geometry" />
        </mxCell>
        <mxCell id="_SBC7PhoCTFk9qtBru0z-5" value="Ambient" style="text;html=1;strokeColor=none;fillColor=none;align=center;verticalAlign=middle;whiteSpace=wrap;rounded=0;" parent="1" vertex="1">
          <mxGeometry x="340" y="470" width="80" height="20" as="geometry" />
        </mxCell>
      </root>
    </mxGraphModel>
  </diagram>
</mxfile>
